<?xml version="1.0" encoding="utf-8"?>
<!-- Generator: Adobe Illustrator 19.0.1, SVG Export Plug-In . SVG Version: 6.00 Build 0)  -->
<svg version="1.1" id="Слой_1" xmlns="http://www.w3.org/2000/svg" xmlns:xlink="http://www.w3.org/1999/xlink" x="0px" y="0px"
	 width="2000.635px" height="115.142px" viewBox="0 0 2000.635 115.142" style="enable-background:new 0 0 2000.635 115.142;"
	 xml:space="preserve">
<path style="fill:#FFFFFF;" d="M2000.193,115.142c0.001-37.047,0.001-74.095-0.06-111.142c-0.002-1.297,1.128-3.1-0.939-4
	c-13.507,5.214-27.612,8.385-41.596,11.891c-56.316,14.119-113.311,24.871-170.591,34.238
	c-43.506,7.115-87.158,13.185-130.902,18.569c-35.34,4.35-70.764,7.988-106.21,11.428c-38.113,3.699-76.266,6.872-114.453,9.596
	c-36.043,2.571-72.124,4.611-108.215,6.488c-61.894,3.218-123.825,5.278-185.78,6.593c-76.634,1.627-153.283,1.719-229.925,0.759
	c-59.807-0.749-119.603-2.308-179.362-4.843c-64.908-2.754-129.771-6.354-194.538-11.552c-10.452-0.839-20.924-1.429-31.386-2.135
	c-13.921-1.339-27.85-2.605-41.762-4.031c-33.63-3.447-67.256-6.941-100.878-10.472c-14.013-1.471-28.038-2.871-42.008-4.686
	c-17.004-2.209-33.959-4.805-50.93-7.263c-54.019-7.822-107.85-16.74-161.349-27.605c-6.032-1.225-12.071-2.416-18.106-3.623
	c-2.234,0.861-2.617,1.768-2.167,2.687c-0.45-0.919-0.067-1.826,2.166-2.687c-4.706-1.043-9.41-2.096-14.118-3.128
	C51.267,14.567,25.689,7.952,0.194,1c0,38.047,0,76.095,0,114.142H2000.193z"/>
</svg>
