<?xml version="1.0" encoding="utf-8"?>
<!-- Generator: Adobe Illustrator 19.0.1, SVG Export Plug-In . SVG Version: 6.00 Build 0)  -->
<svg version="1.1" id="Слой_1" xmlns="http://www.w3.org/2000/svg" xmlns:xlink="http://www.w3.org/1999/xlink" x="0px" y="0px"
	 width="2000.635px" height="99.021px" viewBox="0 0 2000.635 99.021" style="enable-background:new 0 0 2000.635 99.021;"
	 xml:space="preserve">
<path style="fill:#FFFFFF;" d="M4,0c0,0.007,0,0.014,0,0.021c13.659,3.531,27.284,7.201,40.983,10.568
	c47.963,11.786,96.403,21.231,145.071,29.59c38.519,6.616,77.161,12.411,115.897,17.538c28.856,3.819,57.779,7.165,86.71,10.38
	c28.112,3.124,56.253,6.034,84.418,8.63c26.186,2.413,52.411,4.425,78.638,6.36c27.727,2.046,55.467,3.961,83.22,5.621
	c26.928,1.611,53.872,3.012,80.823,4.175c56.081,2.419,112.191,3.986,168.313,5.117c14.822,0.299,29.651,0.277,44.476,0.458
	c2.152,0.026,4.301,0.367,6.451,0.563c50.667,0,101.333,0,152,0c2.707-1.213,5.584-0.644,8.37-0.672
	c73.306-0.737,146.566-3.074,219.788-6.533c61.228-2.893,122.398-6.824,183.474-12.025c64.205-5.468,128.292-12.089,192.182-20.581
	c84.957-11.292,169.443-25.17,252.864-45.059c17.783-4.24,35.426-8.985,52.958-14.151H4z"/>
</svg>
