<?xml version="1.0" encoding="utf-8"?>
<!-- Generator: Adobe Illustrator 19.0.1, SVG Export Plug-In . SVG Version: 6.00 Build 0)  -->
<svg version="1.1" id="Слой_1" xmlns="http://www.w3.org/2000/svg" xmlns:xlink="http://www.w3.org/1999/xlink" x="0px" y="0px"
	 width="41.143px" height="36px" viewBox="0 0 41.143 36" style="enable-background:new 0 0 41.143 36;" xml:space="preserve">
<g>
	<g>
		<linearGradient id="SVGID_1_" gradientUnits="userSpaceOnUse" x1="0" y1="18" x2="41.1429" y2="18">
			<stop  offset="0" style="stop-color:#704FFD"/>
			<stop  offset="0.1428" style="stop-color:#695CFC"/>
			<stop  offset="0.4168" style="stop-color:#5E6FFA"/>
			<stop  offset="0.6992" style="stop-color:#577AF8"/>
			<stop  offset="1" style="stop-color:#557EF8"/>
		</linearGradient>
		<path style="fill:url(#SVGID_1_);" d="M11.37,19.285c2.88,2.047,5.753,4.103,8.629,6.156c0.508,0.363,0.641,0.362,1.145,0.002
			c2.864-2.046,5.725-4.097,8.595-6.134c0.343-0.243,0.476-0.522,0.475-0.94c-0.01-5.798-0.01-11.596,0-17.393
			C30.214,0.576,30.146,0.244,29.813,0H29.33c-0.063,0.042-0.121,0.098-0.19,0.124c-1.422,0.536-2.848,1.064-4.267,1.609
			c-0.232,0.089-0.366,0.027-0.523-0.133C23.821,1.06,23.279,0.532,22.741,0h-4.339c-0.547,0.542-1.088,1.09-1.647,1.618
			c-0.096,0.09-0.298,0.169-0.406,0.13c-1.488-0.544-2.968-1.11-4.449-1.672C11.867,0.063,11.842,0.026,11.813,0H11.33
			c-0.242,0.218-0.403,0.45-0.402,0.814c0.011,5.878,0.01,11.756,0.002,17.634C10.93,18.825,11.069,19.072,11.37,19.285z
			 M12.208,1.827c0-0.066,0.011-0.132,0.021-0.245c0.216,0.075,0.415,0.14,0.61,0.213c0.964,0.36,1.923,0.736,2.893,1.077
			c0.279,0.098,0.362,0.235,0.352,0.518c-0.021,0.56-0.006,1.122-0.006,1.714h1.273c0-0.647-0.019-1.287,0.011-1.924
			c0.01-0.201,0.107-0.437,0.243-0.584c0.416-0.452,0.801-1.031,1.328-1.255c0.512-0.218,1.192,0.004,1.784-0.076
			c1.093-0.147,1.911,0.197,2.602,1.064c0.311,0.39,0.523,0.72,0.481,1.228c-0.042,0.504-0.009,1.014-0.009,1.564h1.273
			c0-0.541,0.023-1.085-0.008-1.626c-0.021-0.36,0.081-0.539,0.442-0.661c0.999-0.34,1.981-0.73,2.971-1.099
			c0.135-0.05,0.271-0.094,0.446-0.155c0.009,0.17,0.021,0.298,0.021,0.426c0.001,5.329-0.001,10.657,0.006,15.986
			c0,0.243-0.081,0.385-0.276,0.524c-2.607,1.853-5.211,3.71-7.807,5.579c-0.23,0.165-0.372,0.146-0.589-0.01
			c-2.586-1.859-5.179-3.709-7.773-5.556c-0.186-0.133-0.295-0.262-0.295-0.515C12.209,12.618,12.207,7.223,12.208,1.827z
			 M20.545,17.994c3.11,0.008,5.804-2.676,5.805-5.785c0.002-3.085-2.689-5.775-5.775-5.772c-3.116,0.003-5.786,2.682-5.782,5.802
			C14.797,15.304,17.478,17.986,20.545,17.994z M20.693,7.708c2.533,0.031,4.407,1.999,4.384,4.607
			c-0.021,2.501-1.995,4.43-4.506,4.406c-2.625-0.026-4.529-1.955-4.506-4.567C16.088,9.567,18.057,7.676,20.693,7.708z
			 M36.025,8.997c0.783,0.005,1.245,0.471,1.267,1.25c0.004,0.134,0.001,0.268,0.001,0.402c0,6.16,0,12.319,0,18.479v0.409h1.254
			c0.007-0.081,0.016-0.134,0.016-0.186c0.001-6.361,0.006-12.721-0.003-19.082c-0.002-1.325-1.2-2.514-2.524-2.543
			c-0.763-0.017-1.526-0.003-2.29-0.003c-0.733,0-1.466,0-2.219,0v1.271c0.188,0,0.334,0,0.48,0
			C33.347,8.993,34.686,8.988,36.025,8.997z M20.473,14.495c0.524-0.516,1.041-1.04,1.561-1.559c0.509-0.509,1.02-1.016,1.489-1.484
			c-0.299-0.33-0.571-0.63-0.885-0.978c-0.917,0.92-1.81,1.817-2.791,2.801c-0.45-0.51-0.897-1.016-1.298-1.47
			c-0.366,0.328-0.662,0.592-0.994,0.889c0.626,0.618,1.23,1.221,1.842,1.816C19.778,14.88,20.087,14.874,20.473,14.495z
			 M27.671,27.01v1.269c0.137,0,0.254,0,0.371,0c2.356,0,4.712,0,7.067-0.001c0.684,0,0.884-0.2,0.884-0.882
			c0.001-3.493,0.001-6.987,0.002-10.48c0-1.941,0-3.882-0.002-5.822c-0.001-0.477-0.186-0.78-0.562-0.787
			c-1.294-0.022-2.589-0.008-3.893-0.008v1.278h3.164V27.01H27.671z M16.05,28.246v-1.214h-1.235v1.214H16.05z M9.608,11.546v-1.255
			c-1.233,0-2.436-0.001-3.639,0c-0.597,0.001-0.82,0.224-0.82,0.825c0,5.434,0,10.869,0.001,16.303
			c0,0.657,0.204,0.858,0.865,0.858c2.369,0.001,4.738,0.001,7.107-0.001c0.115,0,0.231-0.014,0.346-0.021v-1.247H6.448V11.546
			H9.608z M2.597,29.544H3.85v-0.49c0-6.227,0-12.453,0.001-18.68c0-0.93,0.45-1.379,1.379-1.381c0.603-0.001,1.205,0,1.808,0
			c0.853,0,1.706,0,2.579,0V7.72c-1.477,0-2.909-0.002-4.341,0C3.764,7.723,2.578,8.91,2.578,10.423
			c-0.001,6.24,0,12.48,0.002,18.72C2.58,29.272,2.591,29.402,2.597,29.544z M40.167,30.857c-4.62,0.011-9.241,0.041-13.861-0.019
			c-1.064-0.014-1.909,0.178-2.534,1.06c-0.156,0.221-0.373,0.258-0.63,0.256c-1.446-0.01-2.896-0.065-4.338,0.018
			c-0.89,0.051-1.551-0.188-2.059-0.901c-0.231-0.324-0.552-0.415-0.944-0.414c-4.955,0.009-9.91,0.011-14.866-0.001
			C0.543,30.856,0.235,30.944,0,31.259v1.768C0.991,34.018,1.982,35.009,2.973,36H38.17l2.973-2.973v-1.768
			C40.899,30.926,40.567,30.856,40.167,30.857z M39.654,32.718c-0.576,0.598-1.159,1.19-1.765,1.757
			c-0.145,0.136-0.389,0.236-0.588,0.237c-10.526,0.011-21.053,0.009-31.579,0.009c-0.603,0-1.206-0.015-1.808,0.005
			c-0.303,0.01-0.524-0.069-0.738-0.295c-0.552-0.584-1.138-1.135-1.694-1.715c-0.123-0.128-0.177-0.321-0.314-0.58h0.631
			c4.553,0,9.107-0.003,13.66,0.01c0.197,0.001,0.469,0.098,0.579,0.245c0.649,0.863,1.476,1.113,2.546,1.054
			c1.656-0.092,3.32-0.03,4.981-0.019c0.333,0.002,0.622-0.07,0.812-0.343c0.571-0.816,1.343-0.983,2.313-0.971
			c4.218,0.053,8.437,0.023,12.656,0.023h0.632C39.836,32.399,39.778,32.59,39.654,32.718z M26.318,28.257v-1.222h-1.229v1.222
			H26.318z M23.751,28.245v-1.214h-1.229v1.214H23.751z M18.605,28.259v-1.225h-1.229v1.225H18.605z M19.956,28.247h1.224V27.02
			h-1.224V28.247z"/>
	</g>
</g>
</svg>
